<svg width="137" height="137" viewBox="0 0 137 137" fill="none" xmlns="http://www.w3.org/2000/svg">
<path d="M27.76 108.35L4.48 85.07C1.72 82.23 0 78.23 0 74.32C0 72.51 1.02 69.68 1.79 68.05L23.28 23.28L27.76 108.35Z" fill="#01579B"/>
<path d="M107.46 27.76L84.18 4.48C82.15 2.44 77.91 0 74.33 0C71.25 0 68.23 0.62 66.27 1.79L23.29 23.28L107.46 27.76Z" fill="#40C4FF"/>
<path d="M55.52 136.11H111.94V111.93L69.85 98.5L31.35 111.93L55.52 136.11Z" fill="#40C4FF"/>
<path d="M23.29 95.82C23.29 103 24.19 104.77 27.77 108.36L31.35 111.94H111.94L72.54 67.17L23.29 23.29V95.82Z" fill="#29B6F6"/>
<path d="M94.92 23.28H23.28L111.93 111.93H136.11V56.41L107.46 27.76C103.44 23.72 99.86 23.28 94.92 23.28Z" fill="#01579B"/>
<path opacity="0.2" d="M28.66 109.25C25.08 105.65 24.18 102.11 24.18 95.82V24.18L23.28 23.28V95.81C23.29 102.11 23.29 103.85 28.66 109.25L31.35 111.94L28.66 109.25Z" fill="white"/>
<path opacity="0.2" d="M135.22 55.52V111.04H111.04L111.94 111.93H136.12V56.42L135.22 55.52Z" fill="#263238"/>
<path opacity="0.2" d="M107.46 27.76C103.02 23.32 99.38 23.28 94.03 23.28H23.29L24.19 24.18H94.04C96.7 24.18 103.45 23.73 107.46 27.76Z" fill="white"/>
<path opacity="0.2" d="M135.22 55.52L107.46 27.76L84.18 4.48C82.15 2.44 77.91 0 74.33 0C71.25 0 68.23 0.62 66.27 1.79L23.29 23.28L1.80001 68.05C1.03001 69.68 0.0100098 72.51 0.0100098 74.32C0.0100098 78.23 1.73001 82.23 4.49001 85.07L25.95 106.37C26.46 107 27.06 107.64 27.78 108.35L28.68 109.25L31.37 111.94L54.65 135.22L55.55 136.12H111.07H111.97V111.94H136.15V111.88V56.42L135.22 55.52Z" fill="url(#paint0_radial)"/>
<defs>
<radialGradient id="paint0_radial" cx="0" cy="0" r="1" gradientUnits="userSpaceOnUse" gradientTransform="translate(68.075 68.0564) scale(68.065)">
<stop stop-color="white" stop-opacity="0.1"/>
<stop offset="1" stop-color="white" stop-opacity="0"/>
</radialGradient>
</defs>
</svg>
